<mxfile host="app.diagrams.net" modified="2022-06-10T12:39:40.674Z" agent="5.0 (Windows NT 10.0; Win64; x64) AppleWebKit/537.36 (KHTML, like Gecko) Chrome/102.0.5005.63 Safari/537.36" etag="I_4gYBoQn5YQBttdqsY5" version="19.0.3" type="github" pages="3">
  <diagram id="D-yUW482YGTC_Zu7iGBm" name="Page-1">
    <mxGraphModel dx="868" dy="450" grid="1" gridSize="10" guides="1" tooltips="1" connect="1" arrows="1" fold="1" page="1" pageScale="1" pageWidth="827" pageHeight="1169" math="0" shadow="0">
      <root>
        <mxCell id="0" />
        <mxCell id="1" parent="0" />
        <mxCell id="s8_ZTxjLeVXoFBaqplVr-2" value="Подмена данных&amp;nbsp;&lt;br&gt;об уязвимостях" style="rounded=0;whiteSpace=wrap;html=1;" vertex="1" parent="1">
          <mxGeometry x="330" y="70" width="200" height="90" as="geometry" />
        </mxCell>
        <mxCell id="s8_ZTxjLeVXoFBaqplVr-3" value="Кража учетных данных&lt;br&gt;Админнистратора" style="rounded=0;whiteSpace=wrap;html=1;" vertex="1" parent="1">
          <mxGeometry x="80" y="200" width="160" height="100" as="geometry" />
        </mxCell>
        <mxCell id="s8_ZTxjLeVXoFBaqplVr-4" value="Подмена данных&amp;nbsp;&lt;br&gt;в БД" style="rounded=0;whiteSpace=wrap;html=1;" vertex="1" parent="1">
          <mxGeometry x="335" y="200" width="190" height="100" as="geometry" />
        </mxCell>
        <mxCell id="s8_ZTxjLeVXoFBaqplVr-5" value="МТМ-атака" style="rounded=0;whiteSpace=wrap;html=1;" vertex="1" parent="1">
          <mxGeometry x="630" y="190" width="170" height="100" as="geometry" />
        </mxCell>
        <mxCell id="s8_ZTxjLeVXoFBaqplVr-8" value="" style="endArrow=none;html=1;rounded=0;shadow=0;sketch=0;strokeColor=default;jumpStyle=none;entryX=0.5;entryY=1;entryDx=0;entryDy=0;exitX=0.5;exitY=0;exitDx=0;exitDy=0;" edge="1" parent="1" source="s8_ZTxjLeVXoFBaqplVr-3" target="s8_ZTxjLeVXoFBaqplVr-2">
          <mxGeometry width="50" height="50" relative="1" as="geometry">
            <mxPoint x="130" y="330" as="sourcePoint" />
            <mxPoint x="180" y="280" as="targetPoint" />
          </mxGeometry>
        </mxCell>
        <mxCell id="s8_ZTxjLeVXoFBaqplVr-10" value="" style="endArrow=none;html=1;rounded=0;shadow=0;sketch=0;strokeColor=default;jumpStyle=none;entryX=0.5;entryY=1;entryDx=0;entryDy=0;exitX=0.565;exitY=-0.02;exitDx=0;exitDy=0;exitPerimeter=0;" edge="1" parent="1" source="s8_ZTxjLeVXoFBaqplVr-5" target="s8_ZTxjLeVXoFBaqplVr-2">
          <mxGeometry width="50" height="50" relative="1" as="geometry">
            <mxPoint x="170" y="210" as="sourcePoint" />
            <mxPoint x="440" y="170" as="targetPoint" />
          </mxGeometry>
        </mxCell>
        <mxCell id="s8_ZTxjLeVXoFBaqplVr-11" value="" style="endArrow=none;html=1;rounded=0;shadow=0;sketch=0;strokeColor=default;jumpStyle=none;entryX=0.5;entryY=1;entryDx=0;entryDy=0;" edge="1" parent="1" source="s8_ZTxjLeVXoFBaqplVr-4" target="s8_ZTxjLeVXoFBaqplVr-2">
          <mxGeometry width="50" height="50" relative="1" as="geometry">
            <mxPoint x="180" y="220" as="sourcePoint" />
            <mxPoint x="450" y="180" as="targetPoint" />
          </mxGeometry>
        </mxCell>
      </root>
    </mxGraphModel>
  </diagram>
  <diagram name="Page-1" id="jaZjA9ey6SBZGUk1t0Iv">
    <mxGraphModel dx="2329" dy="1000" grid="1" gridSize="20" guides="1" tooltips="1" connect="1" arrows="1" fold="1" page="0" pageScale="1" pageWidth="827" pageHeight="1169" math="0" shadow="0">
      <root>
        <mxCell id="0" />
        <mxCell id="1" parent="0" />
        <mxCell id="6FbULZx7t-redWRsqtDW-2" value="Несанкционированный&lt;br style=&quot;font-size: 19px;&quot;&gt;доступ пользователя" style="rounded=0;whiteSpace=wrap;html=1;fontSize=19;fontStyle=1;strokeWidth=2;" parent="1" vertex="1">
          <mxGeometry x="303" y="20" width="222" height="100" as="geometry" />
        </mxCell>
        <mxCell id="6FbULZx7t-redWRsqtDW-5" style="rounded=0;orthogonalLoop=1;jettySize=auto;html=1;exitX=0.5;exitY=0;exitDx=0;exitDy=0;entryX=0.5;entryY=1;entryDx=0;entryDy=0;fontSize=19;endArrow=none;endFill=0;dashed=1;fontStyle=1;strokeWidth=2;" parent="1" source="6FbULZx7t-redWRsqtDW-4" target="6FbULZx7t-redWRsqtDW-2" edge="1">
          <mxGeometry relative="1" as="geometry" />
        </mxCell>
        <mxCell id="6FbULZx7t-redWRsqtDW-8" style="edgeStyle=none;rounded=0;orthogonalLoop=1;jettySize=auto;html=1;exitX=0.5;exitY=1;exitDx=0;exitDy=0;dashed=1;fontSize=19;endArrow=none;endFill=0;fontStyle=1;strokeWidth=2;" parent="1" source="6FbULZx7t-redWRsqtDW-4" target="6FbULZx7t-redWRsqtDW-7" edge="1">
          <mxGeometry relative="1" as="geometry" />
        </mxCell>
        <mxCell id="6FbULZx7t-redWRsqtDW-4" value="Получение&lt;br style=&quot;font-size: 19px;&quot;&gt;физического&lt;br style=&quot;font-size: 19px;&quot;&gt;доступа&amp;nbsp;к серверу" style="rounded=0;whiteSpace=wrap;html=1;fontSize=19;fontStyle=1;strokeWidth=2;" parent="1" vertex="1">
          <mxGeometry x="-280" y="220" width="301.25" height="150" as="geometry" />
        </mxCell>
        <mxCell id="6FbULZx7t-redWRsqtDW-7" value="Доступ к &lt;br style=&quot;font-size: 19px;&quot;&gt;серверу &lt;br style=&quot;font-size: 19px;&quot;&gt;надежно &lt;br style=&quot;font-size: 19px;&quot;&gt;защищен" style="ellipse;whiteSpace=wrap;html=1;fontSize=19;aspect=fixed;fontStyle=1;strokeWidth=2;" parent="1" vertex="1">
          <mxGeometry x="-218.12" y="450" width="177.5" height="177.5" as="geometry" />
        </mxCell>
        <mxCell id="-A18JB_W-Mte3Z53-bMp-1" style="edgeStyle=none;rounded=0;orthogonalLoop=1;jettySize=auto;html=1;exitX=0.5;exitY=1;exitDx=0;exitDy=0;entryX=0.5;entryY=0;entryDx=0;entryDy=0;fontSize=19;endArrow=none;endFill=0;fontStyle=1;strokeWidth=2;" parent="1" source="6FbULZx7t-redWRsqtDW-9" target="6FbULZx7t-redWRsqtDW-21" edge="1">
          <mxGeometry relative="1" as="geometry" />
        </mxCell>
        <mxCell id="6FbULZx7t-redWRsqtDW-9" value="Сервер находится в подсети, к которой имеется&lt;br style=&quot;font-size: 19px;&quot;&gt;ограниченный круг лиц" style="rounded=0;whiteSpace=wrap;html=1;fontSize=19;fontStyle=1;strokeWidth=2;" parent="1" vertex="1">
          <mxGeometry x="100" y="220" width="290" height="150" as="geometry" />
        </mxCell>
        <mxCell id="6FbULZx7t-redWRsqtDW-10" value="Злоумышленник сканирует подсеть&amp;nbsp;" style="rounded=0;whiteSpace=wrap;html=1;fontSize=19;fontStyle=1;strokeWidth=2;" parent="1" vertex="1">
          <mxGeometry x="440" y="220" width="280" height="150" as="geometry" />
        </mxCell>
        <mxCell id="6FbULZx7t-redWRsqtDW-11" value="Сервер находится в подсети, доступ к которой имеют все" style="rounded=0;whiteSpace=wrap;html=1;fontSize=19;fontStyle=1;strokeWidth=2;" parent="1" vertex="1">
          <mxGeometry x="800" y="220" width="320" height="150" as="geometry" />
        </mxCell>
        <mxCell id="6FbULZx7t-redWRsqtDW-13" style="rounded=0;orthogonalLoop=1;jettySize=auto;html=1;exitX=0.5;exitY=0;exitDx=0;exitDy=0;entryX=0.5;entryY=1;entryDx=0;entryDy=0;fontSize=19;endArrow=none;endFill=0;dashed=1;fontStyle=1;strokeWidth=2;" parent="1" source="6FbULZx7t-redWRsqtDW-11" target="6FbULZx7t-redWRsqtDW-2" edge="1">
          <mxGeometry relative="1" as="geometry">
            <mxPoint x="115" y="240" as="sourcePoint" />
            <mxPoint x="434" y="140" as="targetPoint" />
          </mxGeometry>
        </mxCell>
        <mxCell id="6FbULZx7t-redWRsqtDW-14" value="" style="endArrow=none;html=1;rounded=0;fontSize=19;exitX=0.5;exitY=0;exitDx=0;exitDy=0;fontStyle=1;strokeWidth=2;" parent="1" source="6FbULZx7t-redWRsqtDW-10" edge="1">
          <mxGeometry width="50" height="50" relative="1" as="geometry">
            <mxPoint x="480" y="230" as="sourcePoint" />
            <mxPoint x="420" y="120" as="targetPoint" />
          </mxGeometry>
        </mxCell>
        <mxCell id="6FbULZx7t-redWRsqtDW-15" style="rounded=0;orthogonalLoop=1;jettySize=auto;html=1;exitX=0.5;exitY=0;exitDx=0;exitDy=0;fontSize=19;endArrow=none;endFill=0;fontStyle=1;strokeWidth=2;" parent="1" source="6FbULZx7t-redWRsqtDW-9" edge="1">
          <mxGeometry relative="1" as="geometry">
            <mxPoint x="135" y="260" as="sourcePoint" />
            <mxPoint x="420" y="120" as="targetPoint" />
          </mxGeometry>
        </mxCell>
        <mxCell id="6FbULZx7t-redWRsqtDW-26" style="edgeStyle=none;rounded=0;orthogonalLoop=1;jettySize=auto;html=1;exitX=0.5;exitY=1;exitDx=0;exitDy=0;entryX=0.55;entryY=-0.017;entryDx=0;entryDy=0;entryPerimeter=0;fontSize=19;endArrow=none;endFill=0;fontStyle=1;strokeWidth=2;" parent="1" source="6FbULZx7t-redWRsqtDW-16" target="6FbULZx7t-redWRsqtDW-24" edge="1">
          <mxGeometry relative="1" as="geometry" />
        </mxCell>
        <mxCell id="6FbULZx7t-redWRsqtDW-16" value="Злоумышленник сканирует подсеть&amp;nbsp;" style="rounded=0;whiteSpace=wrap;html=1;fontSize=19;fontStyle=1;strokeWidth=2;" parent="1" vertex="1">
          <mxGeometry x="10" y="450" width="230" height="150" as="geometry" />
        </mxCell>
        <mxCell id="6FbULZx7t-redWRsqtDW-17" value="" style="endArrow=none;html=1;rounded=0;fontSize=19;exitX=0.5;exitY=0;exitDx=0;exitDy=0;entryX=0.5;entryY=1;entryDx=0;entryDy=0;fontStyle=1;strokeWidth=2;" parent="1" source="6FbULZx7t-redWRsqtDW-16" target="6FbULZx7t-redWRsqtDW-9" edge="1">
          <mxGeometry width="50" height="50" relative="1" as="geometry">
            <mxPoint x="260" y="410" as="sourcePoint" />
            <mxPoint x="310" y="360" as="targetPoint" />
          </mxGeometry>
        </mxCell>
        <mxCell id="6FbULZx7t-redWRsqtDW-21" value="&lt;span style=&quot;font-size: 19px;&quot;&gt;Взлом ПК пользователя, у которого есть доступ к подсети&amp;nbsp;&lt;/span&gt;" style="rounded=0;whiteSpace=wrap;html=1;fontSize=19;fontStyle=1;strokeWidth=2;" parent="1" vertex="1">
          <mxGeometry x="340" y="450" width="260" height="150" as="geometry" />
        </mxCell>
        <mxCell id="6FbULZx7t-redWRsqtDW-23" value="Подбор пароля администратора сетевого оборудования&amp;nbsp;" style="rounded=0;whiteSpace=wrap;html=1;fontSize=19;fontStyle=1;strokeWidth=2;" parent="1" vertex="1">
          <mxGeometry x="-160" y="680" width="250" height="150" as="geometry" />
        </mxCell>
        <mxCell id="6FbULZx7t-redWRsqtDW-28" value="" style="edgeStyle=none;rounded=0;orthogonalLoop=1;jettySize=auto;html=1;fontSize=19;endArrow=none;endFill=0;fontStyle=1;strokeWidth=2;" parent="1" source="6FbULZx7t-redWRsqtDW-24" target="6FbULZx7t-redWRsqtDW-27" edge="1">
          <mxGeometry relative="1" as="geometry" />
        </mxCell>
        <mxCell id="6FbULZx7t-redWRsqtDW-24" value="Эксплуатация уязвимостей сетевого оборудования&amp;nbsp;" style="rounded=0;whiteSpace=wrap;html=1;fontSize=19;fontStyle=1;strokeWidth=2;" parent="1" vertex="1">
          <mxGeometry x="240" y="680" width="300" height="150" as="geometry" />
        </mxCell>
        <mxCell id="6FbULZx7t-redWRsqtDW-25" value="" style="endArrow=none;html=1;rounded=0;fontSize=19;entryX=0.5;entryY=1;entryDx=0;entryDy=0;exitX=0.5;exitY=0;exitDx=0;exitDy=0;fontStyle=1;strokeWidth=2;" parent="1" source="6FbULZx7t-redWRsqtDW-23" target="6FbULZx7t-redWRsqtDW-16" edge="1">
          <mxGeometry width="50" height="50" relative="1" as="geometry">
            <mxPoint x="160" y="640" as="sourcePoint" />
            <mxPoint x="290" y="560" as="targetPoint" />
          </mxGeometry>
        </mxCell>
        <mxCell id="6FbULZx7t-redWRsqtDW-27" value="Злоумышленник добавляет свое устройство в список устройств, имеющих доступ к подсети&amp;nbsp;" style="rounded=0;whiteSpace=wrap;html=1;fontSize=19;fontStyle=1;strokeWidth=2;" parent="1" vertex="1">
          <mxGeometry x="240" y="920" width="300" height="150" as="geometry" />
        </mxCell>
        <mxCell id="Y8-Q894dEQFveqAiLZU0-1" value="&lt;span style=&quot;font-size: 19px; background-color: rgb(248, 249, 250);&quot;&gt;Доступ к&lt;/span&gt;&lt;br style=&quot;font-size: 19px; background-color: rgb(248, 249, 250);&quot;&gt;&lt;span style=&quot;font-size: 19px; background-color: rgb(248, 249, 250);&quot;&gt;серверу&lt;/span&gt;&lt;br style=&quot;font-size: 19px; background-color: rgb(248, 249, 250);&quot;&gt;&lt;span style=&quot;font-size: 19px; background-color: rgb(248, 249, 250);&quot;&gt;имеет ограниченный круг лиц&lt;/span&gt;" style="rounded=0;whiteSpace=wrap;html=1;fontStyle=1;fontSize=19;strokeWidth=2;" vertex="1" parent="1">
          <mxGeometry x="820" y="468.75" width="360" height="140" as="geometry" />
        </mxCell>
        <mxCell id="Y8-Q894dEQFveqAiLZU0-5" value="" style="endArrow=none;html=1;rounded=0;shadow=0;sketch=0;fontSize=19;strokeColor=default;strokeWidth=2;jumpStyle=none;entryX=0.615;entryY=1;entryDx=0;entryDy=0;entryPerimeter=0;exitX=0.5;exitY=0;exitDx=0;exitDy=0;" edge="1" parent="1" source="Y8-Q894dEQFveqAiLZU0-1" target="6FbULZx7t-redWRsqtDW-11">
          <mxGeometry width="50" height="50" relative="1" as="geometry">
            <mxPoint x="300" y="370" as="sourcePoint" />
            <mxPoint x="350" y="320" as="targetPoint" />
          </mxGeometry>
        </mxCell>
      </root>
    </mxGraphModel>
  </diagram>
  <diagram name="Page-2" id="khUCScZbDv_7Tpq3c3cM">
    <mxGraphModel dx="868" dy="393" grid="1" gridSize="20" guides="1" tooltips="1" connect="1" arrows="1" fold="1" page="1" pageScale="1" pageWidth="827" pageHeight="1169" math="0" shadow="0">
      <root>
        <mxCell id="0" />
        <mxCell id="1" parent="0" />
        <mxCell id="SDMlweXN4qUUG9gfwiu--1" value="Отказ в обслуживании при обработке API запросов" style="rounded=0;whiteSpace=wrap;html=1;fontSize=18;" parent="1" vertex="1">
          <mxGeometry x="400" y="20" width="240" height="60" as="geometry" />
        </mxCell>
        <mxCell id="SDMlweXN4qUUG9gfwiu--2" value="Использование уязвимостей web-сервера&amp;nbsp;" style="rounded=0;whiteSpace=wrap;html=1;fontSize=18;" parent="1" vertex="1">
          <mxGeometry x="20" y="140" width="220" height="80" as="geometry" />
        </mxCell>
        <mxCell id="SDMlweXN4qUUG9gfwiu--3" value="Перенасыщение трафиком&amp;nbsp;" style="rounded=0;whiteSpace=wrap;html=1;fontSize=18;" parent="1" vertex="1">
          <mxGeometry x="280" y="140" width="160" height="80" as="geometry" />
        </mxCell>
        <mxCell id="SDMlweXN4qUUG9gfwiu--4" value="Использование ошибок в настройке web сервера&amp;nbsp;" style="rounded=0;whiteSpace=wrap;html=1;fontSize=18;" parent="1" vertex="1">
          <mxGeometry x="480" y="140" width="240" height="80" as="geometry" />
        </mxCell>
        <mxCell id="SDMlweXN4qUUG9gfwiu--5" value="Физическое отключение сервера&amp;nbsp;" style="rounded=0;whiteSpace=wrap;html=1;fontSize=18;" parent="1" vertex="1">
          <mxGeometry x="760" y="140" width="153" height="80" as="geometry" />
        </mxCell>
        <mxCell id="SDMlweXN4qUUG9gfwiu--6" value="Используется надежный web сервер, проверенного производителя&amp;nbsp;" style="ellipse;whiteSpace=wrap;html=1;aspect=fixed;fontSize=18;" parent="1" vertex="1">
          <mxGeometry x="40" y="330" width="180" height="180" as="geometry" />
        </mxCell>
        <mxCell id="SDMlweXN4qUUG9gfwiu--7" value="Перенасыщение web сервера&amp;nbsp;" style="rounded=0;whiteSpace=wrap;html=1;fontSize=18;" parent="1" vertex="1">
          <mxGeometry x="280" y="360" width="200" height="120" as="geometry" />
        </mxCell>
        <mxCell id="SDMlweXN4qUUG9gfwiu--8" value="Перенасыщение сетевого оборудования&amp;nbsp;" style="rounded=0;whiteSpace=wrap;html=1;fontSize=18;" parent="1" vertex="1">
          <mxGeometry x="510" y="360" width="180" height="120" as="geometry" />
        </mxCell>
        <mxCell id="SDMlweXN4qUUG9gfwiu--9" value="Доступ к серверу ограничен&amp;nbsp;" style="ellipse;whiteSpace=wrap;html=1;aspect=fixed;fontSize=18;" parent="1" vertex="1">
          <mxGeometry x="776.5" y="360" width="120" height="120" as="geometry" />
        </mxCell>
        <mxCell id="SDMlweXN4qUUG9gfwiu--10" value="Создание множества долгоисполняющихся запросов&amp;nbsp;" style="rounded=0;whiteSpace=wrap;html=1;fontSize=18;" parent="1" vertex="1">
          <mxGeometry x="120" y="560" width="220" height="105" as="geometry" />
        </mxCell>
        <mxCell id="SDMlweXN4qUUG9gfwiu--11" value="Заполнение дискового пространства за счет увеличения обьема&amp;nbsp;" style="rounded=0;whiteSpace=wrap;html=1;fontSize=18;" parent="1" vertex="1">
          <mxGeometry x="390" y="560" width="190" height="100" as="geometry" />
        </mxCell>
        <mxCell id="SDMlweXN4qUUG9gfwiu--12" value="Выход оборудования из строя&amp;nbsp;" style="rounded=0;whiteSpace=wrap;html=1;fontSize=18;" parent="1" vertex="1">
          <mxGeometry x="640" y="560" width="200" height="100" as="geometry" />
        </mxCell>
        <mxCell id="SDMlweXN4qUUG9gfwiu--13" value="Долго исполняющиеся запросы автоматически прерываются&amp;nbsp;" style="ellipse;whiteSpace=wrap;html=1;aspect=fixed;fontSize=18;" parent="1" vertex="1">
          <mxGeometry x="160" y="760" width="180" height="180" as="geometry" />
        </mxCell>
      </root>
    </mxGraphModel>
  </diagram>
</mxfile>
